<svg class="nav__link-icon" viewBox="0 0 48 48">
  <g>
    <path d="M24.038 29.5c-6.55 0-11.878-6.168-11.878-13.75S17.488 2 24.038 2s11.879 6.168 11.879 13.75S30.588 29.5 24.038 29.5zm0-25.667c-5.538 0-10.044 5.346-10.044 11.917 0 6.57 4.506 11.917 10.044 11.917 5.539 0 10.045-5.346 10.045-11.917 0-6.57-4.506-11.917-10.044-11.917z"/>
    <path d="M45.983 46H2.017v-6.207a6.429 6.429 0 014.258-6.042l11.308-3.116v-3.809h1.834v5.206l-12.59 3.465c-1.754.63-2.977 2.364-2.977 4.296v4.374h40.3v-4.374a4.593 4.593 0 00-3.042-4.316l-12.525-3.445v-5.167h1.834v3.77L41.66 33.73c2.612.93 4.324 3.357 4.324 6.062V46zM32.066 14.117a3.93 3.93 0 01-.188-.004c-2.064-.075-4.469-1.38-5.997-3.145-1.069 1.362-2.595 2.238-4.484 2.56-3.305.566-7.084-.702-8.234-1.818l1.277-1.316c.554.538 3.699 1.828 6.65 1.325 1.831-.31 3.151-1.252 3.923-2.796l.766-1.532.85 1.487c1.015 1.776 3.45 3.334 5.317 3.402.83.022 1.42-.226 1.797-.785l1.521 1.024c-.697 1.035-1.827 1.598-3.198 1.598z"/>
  </g>
</svg>
