<svg class="nav__link-icon" viewBox="0 0 48 48">
  <g transform="translate(2 3)">
    <path d="M40.333 35.75H3.667C1.645 35.75 0 34.062 0 31.987V3.763C0 1.688 1.645 0 3.667 0h36.666C42.356 0 44 1.688 44 3.763v28.224c0 2.075-1.645 3.763-3.667 3.763zM3.667 1.833c-1.011 0-1.834.847-1.834 1.888v28.308c0 1.041.823 1.888 1.834 1.888h36.666c1.011 0 1.834-.847 1.834-1.888V3.721c0-1.041-.823-1.888-1.834-1.888H3.667zM34.833 41.25H9.167a.917.917 0 010-1.833h25.666a.917.917 0 010 1.833z"/>
    <path d="M28.435 41.25H15.583a.919.919 0 01-.87-1.207l1.834-5.5a.917.917 0 01.87-.626h9.166c.395 0 .745.252.87.627l1.779 5.336a.916.916 0 01-.797 1.37zm-11.58-1.833h10.29l-1.222-3.667h-7.845l-1.223 3.667zm25.312-12.834H1.833V24.75h40.334v1.833z"/>
    <circle cx="22" cy="30.25" r="1.833"/>
  </g>
</svg>
